<svg xmlns="http://www.w3.org/2000/svg" xml:space="preserve" viewBox="0 0 192 192"><path d="M89.35 175.685c-48.82-3.764-82.88-51.39-70.959-99.216C31.527 23.774 93.437-.75 138.991 28.698c2.968 1.918 2.968 1.918 4.683 1.118 6.298-2.938 14.894.382 18.13 7.005 1.46 2.991 1.593 8.55.271 11.384-.796 1.706-.796 1.706 1.48 5.264 35.147 54.973-8.745 127.263-74.205 122.216zm16.443-9.934c47.323-6.881 74.27-57.485 53.527-100.52-1.362-2.827-4.348-8.094-5.174-9.128-.033-.04-1.033.135-2.223.389-2.48.529-5.14.36-7.359-.469-2.242-.837-36.287 33.13-35.404 35.323 5.508 13.683-13.414 25.124-23.485 14.198-9.8-10.63 1.616-28.15 14.867-22.817 2.193.883 36.16-33.163 35.32-35.404-.867-2.315-1.023-4.644-.483-7.231.378-1.815.398-2.357.093-2.56C94.69 10.331 38.97 31.792 27.425 79.148c-11.787 48.353 29.285 93.741 78.368 86.603Zm18.868-36.427c-2.633-1.409-2.531-.609-2.53-19.757.001-21.86-.802-20.22 9.833-20.075 7.448.102 9.09.557 12.136 3.365 6.54 6.027 5.105 16.759-2.74 20.5-1.447.69-1.687.227 2.77 5.33 2.907 3.327 3.934 4.725 4.093 5.57.642 3.424-2.72 6.51-5.936 5.448-1.33-.439-1.704-.803-6.733-6.538-3.902-4.451-3.902-4.451-4.058-.387-.133 3.468-.25 4.191-.8 4.926-1.668 2.231-3.814 2.806-6.035 1.618zm11.582-23.99c4.855-1.348 2.978-6.543-2.364-6.543-2.383 0-2.383 0-2.383 3.434 0 3.674.808 4.203 4.747 3.11zm-38.269-5.313c1.403-.68 2.615-2.551 2.615-4.04 0-4.686-6.688-6.272-8.723-2.068-1.988 4.107 2.001 8.096 6.108 6.108zm53.454-53.236c4.119-2.459 2.145-8.829-2.627-8.477-5.847.43-5.576 8.961.286 8.97.832 0 1.885-.221 2.341-.493z" style="fill:#000;stroke-width:.312192"/></svg>